<svg width="81" height="81" fill="none" xmlns="http://www.w3.org/2000/svg"><path fill-rule="evenodd" clip-rule="evenodd" d="M40.5 21.08l9.618-8.015H62.71V0H31.355v13.065H40.5v8.014zm-6.532-10.628v-7.84h26.129v7.84H49.172l-6.06 5.05v-5.05h-9.144zm2.613-5.226h2.613v2.613H36.58V5.226zm15.677 0H41.806v2.613h10.452V5.226zm2.613 0h2.613v2.613H54.87V5.226zM65.448 67.81l1.057 10.576H81V81H0v-2.613h11.758V57.484H9.145v-7.839h5.226v-4.882a5.246 5.246 0 013.79-5.025l5.355-1.528v-2.335a7.816 7.816 0 01-2.613-5.827v-2.613c0-4.323 3.516-7.838 7.839-7.838s7.839 3.515 7.839 7.838v2.613a7.812 7.812 0 01-2.613 5.827v2.334l5.355 1.528c2.12.606 3.615 2.504 3.761 4.682h7.327l7.012-7.012c-3.008-1.097-5.165-3.976-5.165-7.359v-2.613c0-4.323 3.516-7.838 7.839-7.838s7.839 3.515 7.839 7.838v2.613a7.811 7.811 0 01-2.546 5.765A4.7 4.7 0 0167.936 40v1.805h5.225V58.79c0 4.554-3.35 8.331-7.713 9.021zM54.871 51.492v5.992h-3.92v2.613h10.452c2.16 0 3.92-1.76 3.92-3.92V40.001a.91.91 0 00-.022-.174c-.006-.033-.012-.065-.016-.098a4.092 4.092 0 01-1.157 2.506l-9.257 9.258zm2.737 16.443h-6.656v10.452h7.701l-1.045-10.452zm5.226 0h-2.6l1.045 10.452h2.6l-1.045-10.452zm5.102-23.516v11.758a6.54 6.54 0 01-6.533 6.533H50.952v2.613h13.064a6.54 6.54 0 006.532-6.533V44.42h-2.612zM54.87 27.435v2.613a5.231 5.231 0 005.226 5.226 5.231 5.231 0 005.226-5.226v-2.613a5.231 5.231 0 00-5.226-5.225 5.231 5.231 0 00-5.226 5.225zm5.338 10.88l-8.716 8.717h-12.3a1.307 1.307 0 000 2.613h13.83l9.258-9.257a1.466 1.466 0 00-2.072-2.072zM28.742 22.21a5.231 5.231 0 00-5.226 5.225v2.613a5.231 5.231 0 005.226 5.226 5.231 5.231 0 005.226-5.226v-2.613a5.231 5.231 0 00-5.226-5.225zm2.613 15.22a7.798 7.798 0 01-2.613.457 7.8 7.8 0 01-2.613-.457v1.403c.324.5 1.224 1.667 2.613 1.667s2.289-1.167 2.613-1.667V37.43zm-12.477 4.82a2.625 2.625 0 00-1.894 2.513v4.88h18.53a3.866 3.866 0 01-.24-1.306 3.925 3.925 0 013.92-3.919h1.25c-.14-1.012-.838-1.883-1.839-2.169l-5.382-1.537c-.758.988-2.232 2.4-4.481 2.4-2.249 0-3.724-1.412-4.481-2.399l-5.383 1.537zm33.38 10.008h-40.5v2.613h40.5v-2.613zM18.29 62.71h-3.919v15.677h3.112l2.613-5.226h22.518l2.613 5.226h3.112V62.71H20.903v-2.613H48.34v-2.613H14.37v2.613h3.92v2.613zm2.114 15.677h21.901L41 75.774H21.71l-1.307 2.613z" fill="#EF8B54"/></svg>