<svg width="75" height="76" fill="none" xmlns="http://www.w3.org/2000/svg"><path fill-rule="evenodd" clip-rule="evenodd" d="M70.17.978H4.83A4.837 4.837 0 000 5.809v53.11a4.837 4.837 0 004.831 4.831h4.13a1.097 1.097 0 100-2.195h-4.13a2.638 2.638 0 01-2.635-2.635v-4.164h39.99v1.892h-.871a2.16 2.16 0 00-2.159 2.158v2.75h-23.52a1.098 1.098 0 000 2.194h10.553v3.937h-3.314a4.014 4.014 0 00-4.01 4.01v2.37c0 1.01.821 1.83 1.83 1.83h33.527c1.008 0 1.83-.82 1.83-1.83v-2.37c0-2.21-1.8-4.01-4.01-4.01h-3.315V66.3H69.02a2.16 2.16 0 002.158-2.159v-.516a4.838 4.838 0 003.739-4.704L75 5.809A4.835 4.835 0 0070.17.978zM41.352 52.143V46.88h27.631v5.261H41.352zm3.028-7.458v-2.309h21.574v2.31H44.38zm21.574 9.652v2.31H44.38v-2.31h21.574zm-37.57 9.413h10.772v.391a2.16 2.16 0 002.159 2.158h5.217v1.388H28.384V63.75zm23.658 6.133c1 0 1.814.813 1.814 1.814v2.005H21.061v-2.005c0-1 .814-1.814 1.814-1.814h29.167zm16.941-5.78H41.352v-5.26h27.631v5.26zm3.739-5.183a2.636 2.636 0 01-1.543 2.395v-2.51c0-1.19-.97-2.157-2.16-2.157h-.87v-1.892h4.573v4.164zm0-6.36h-1.58c.023-.123.037-5.716.037-5.716 0-1.19-.97-2.159-2.16-2.159h-.87v-2.309h.87c1.19 0 2.16-.969 2.16-2.159v-5.335c0-1.19-.97-2.158-2.16-2.158h-6.2a1.097 1.097 0 100 2.195h6.164v5.262H41.352v-5.262H55.99a1.097 1.097 0 100-2.195H41.315c-1.19 0-2.159.968-2.159 2.158v5.335c0 1.19.968 2.16 2.159 2.16h.87v2.308h-.87c-1.19 0-2.159.97-2.159 2.16 0 0 .014 5.592.036 5.716H2.196V15.909h70.526v36.652zm0-38.846H2.276V5.809a2.638 2.638 0 012.636-2.635h65.174a2.638 2.638 0 012.636 2.635v7.905zM11.89 28.55a1.1 1.1 0 001.423-.62l2.704-6.883a1.098 1.098 0 00-2.043-.803l-2.704 6.883a1.098 1.098 0 00.62 1.423zm4.974-1.798l2.665-2.665-2.664-2.665a1.097 1.097 0 111.552-1.553l3.441 3.442a1.097 1.097 0 010 1.552l-3.442 3.442a1.095 1.095 0 01-1.551 0 1.097 1.097 0 010-1.553zm-7.451 1.874c-.281 0-.562-.108-.776-.322l-3.441-3.44a1.098 1.098 0 010-1.553l3.44-3.442a1.098 1.098 0 011.553 1.553l-2.665 2.665 2.665 2.665a1.098 1.098 0 01-.776 1.874zm4.575 6.44H6.593a1.097 1.097 0 110-2.196h7.395a1.098 1.098 0 010 2.196zm17.03-2.196h-13a1.098 1.098 0 000 2.196h13a1.098 1.098 0 100-2.196zM9.744 39.695h-3.15a1.097 1.097 0 110-2.195h3.15a1.098 1.098 0 010 2.195zm17.26-2.195a1.097 1.097 0 100 2.195h1.918a1.098 1.098 0 100-2.195h-1.918zm-3.986 0a1.098 1.098 0 010 2.195h-9.422a1.097 1.097 0 110-2.195h9.422zm8.287 1.097c0 .607.492 1.098 1.098 1.098h3.593a1.098 1.098 0 100-2.195h-3.593c-.606 0-1.098.491-1.098 1.097zm-2.188-13.63h-3.79a1.098 1.098 0 110-2.195h3.79a1.098 1.098 0 110 2.195zm4.245 0h23.123a1.097 1.097 0 100-2.195H33.361a1.098 1.098 0 100 2.195zm10.244 2.634h9.367a1.098 1.098 0 010 2.196h-9.367a1.098 1.098 0 010-2.196zm-3.512 0h-3.22a1.097 1.097 0 100 2.196h3.22a1.097 1.097 0 100-2.196zm-6.879 2.196h-7.887a1.098 1.098 0 110-2.196h7.887a1.098 1.098 0 010 2.196zM23.03 42.09h-7.394a1.098 1.098 0 100 2.195h7.394a1.098 1.098 0 000-2.195zm-16.437 0h5.68a1.097 1.097 0 110 2.195h-5.68a1.097 1.097 0 110-2.195zm29.841 0h-9.66a1.097 1.097 0 100 2.195h9.66a1.098 1.098 0 000-2.195zm7.781-5.639h5.282a1.097 1.097 0 110 2.196h-5.282a1.098 1.098 0 010-2.196zm14.448 2.196h7.456a1.098 1.098 0 100-2.196h-7.456a1.097 1.097 0 100 2.196zm-5.438-2.196h1.71a1.097 1.097 0 110 2.196h-1.71a1.098 1.098 0 110-2.196zm-9.01 14.157h5.282a1.097 1.097 0 100-2.195h-5.282a1.098 1.098 0 000 2.195zm21.904 0h-7.456a1.097 1.097 0 110-2.195h7.456a1.098 1.098 0 110 2.195zm-12.893 0h1.708a1.097 1.097 0 100-2.195h-1.708a1.097 1.097 0 100 2.195zm-9.011 9.767h5.282a1.097 1.097 0 110 2.195h-5.282a1.098 1.098 0 010-2.195zm21.904 0h-7.456a1.097 1.097 0 100 2.195h7.456a1.098 1.098 0 100-2.195zm-12.894 0h1.71a1.097 1.097 0 110 2.195h-1.71a1.098 1.098 0 110-2.195zM4.874 8.412a3.224 3.224 0 013.221-3.22 3.225 3.225 0 013.221 3.22 3.226 3.226 0 01-3.221 3.222 3.225 3.225 0 01-3.221-3.222zm2.195 0a1.027 1.027 0 101.026-1.026c-.565 0-1.026.46-1.026 1.026zm9.228-3.22a3.225 3.225 0 00-3.222 3.22 3.225 3.225 0 003.222 3.222 3.225 3.225 0 003.22-3.222 3.225 3.225 0 00-3.22-3.22zm0 4.246a1.027 1.027 0 010-2.052 1.027 1.027 0 010 2.052zm4.98-1.026a3.224 3.224 0 013.22-3.22 3.225 3.225 0 013.222 3.22 3.226 3.226 0 01-3.222 3.222 3.225 3.225 0 01-3.22-3.222zm2.194 0a1.027 1.027 0 101.026-1.026c-.565 0-1.026.46-1.026 1.026z" fill="#EF8B54"/></svg>