<svg width="75" height="75" fill="none" xmlns="http://www.w3.org/2000/svg"><path fill-rule="evenodd" clip-rule="evenodd" d="M4.836 0h65.328A4.841 4.841 0 0175 4.836V46.73a1.099 1.099 0 01-2.198 0V14.947H2.198v55.217a2.641 2.641 0 002.638 2.638h65.328a2.641 2.641 0 002.638-2.638V53.518a1.099 1.099 0 112.198 0v16.646A4.842 4.842 0 0170.164 75H4.836A4.842 4.842 0 010 70.164V4.836A4.841 4.841 0 014.836 0zM2.198 12.75h70.604V4.835a2.641 2.641 0 00-2.638-2.638H4.836a2.64 2.64 0 00-2.638 2.638v7.913zm2.6-5.307a3.228 3.228 0 013.225-3.225 3.228 3.228 0 013.224 3.225 3.228 3.228 0 01-3.224 3.224 3.228 3.228 0 01-3.225-3.224zm2.198 0a1.028 1.028 0 002.054 0 1.028 1.028 0 00-2.054 0zm6.012 0a3.228 3.228 0 013.225-3.225 3.228 3.228 0 013.224 3.225 3.228 3.228 0 01-3.224 3.224 3.229 3.229 0 01-3.225-3.224zm2.198 0a1.028 1.028 0 002.054 0 1.028 1.028 0 00-2.054 0zm9.237-3.225a3.228 3.228 0 00-3.225 3.225 3.228 3.228 0 003.225 3.224 3.228 3.228 0 003.224-3.224 3.228 3.228 0 00-3.224-3.225zm0 4.251a1.028 1.028 0 010-2.053 1.028 1.028 0 010 2.054zm43.156 14.226a3.479 3.479 0 00-3.474-3.475H10.71a3.479 3.479 0 00-3.474 3.475v6.454a1.099 1.099 0 102.198 0v-6.454c0-.705.572-1.277 1.276-1.277h53.414c.704 0 1.276.572 1.276 1.277V42.81c0 .704-.572 1.277-1.276 1.277h-3.46L49.403 31.392a1.804 1.804 0 00-2.627-.078l-5.966 5.963-8.037-9.057a1.81 1.81 0 00-1.296-.607 1.822 1.822 0 00-1.33.528L14.191 44.087h-3.48a1.278 1.278 0 01-1.277-1.277v-6.727a1.1 1.1 0 10-2.198 0v6.727a3.478 3.478 0 003.474 3.474h53.414a3.478 3.478 0 003.474-3.474V22.695zM17.301 44.087L31.405 29.99l10.693 12.05a1.098 1.098 0 101.644-1.458l-1.471-1.658 5.764-5.761 9.693 10.924H17.301zM7.237 52.835a3.477 3.477 0 013.473-3.474h21.256a3.478 3.478 0 013.474 3.474v10.78a3.478 3.478 0 01-3.474 3.474H10.71a3.477 3.477 0 01-3.473-3.474v-10.78zm26.005 10.78v-10.78c0-.704-.573-1.276-1.276-1.276H10.71c-.703 0-1.275.572-1.275 1.276v10.78c0 .704.572 1.276 1.275 1.276h21.256c.703 0 1.276-.572 1.276-1.276zM42.87 49.36a3.477 3.477 0 00-3.474 3.474v10.78a3.477 3.477 0 003.474 3.474h21.255a3.478 3.478 0 003.474-3.474v-10.78a3.478 3.478 0 00-3.474-3.474H42.87zm22.53 3.475v10.78c0 .704-.572 1.276-1.276 1.276H42.87a1.277 1.277 0 01-1.276-1.276v-10.78c0-.704.572-1.276 1.276-1.276h21.255c.704 0 1.276.572 1.276 1.276zm-49.59 2.87h-2.97a1.099 1.099 0 110-2.199h2.97a1.099 1.099 0 010 2.198zm-2.97 3.722h1.545a1.099 1.099 0 000-2.197H12.84a1.099 1.099 0 100 2.197zm12.893-2.197h4.102a1.098 1.098 0 110 2.197h-4.102a1.099 1.099 0 110-2.197zm-6.154-1.526h9.963a1.099 1.099 0 100-2.198H19.58a1.099 1.099 0 000 2.198zm6.992 5.042h2.97a1.099 1.099 0 110 2.198h-2.97a1.1 1.1 0 010-2.198zm-3.768 0H12.84a1.099 1.099 0 100 2.198h9.963a1.099 1.099 0 000-2.198zm-.733-1.32h-4.279a1.099 1.099 0 010-2.197h4.28a1.099 1.099 0 110 2.198zM45 55.705h2.97a1.098 1.098 0 100-2.198H45a1.1 1.1 0 100 2.198zm1.545 3.723H45a1.099 1.099 0 110-2.197h1.545a1.099 1.099 0 110 2.197zm15.45-2.197h-4.102a1.099 1.099 0 100 2.197h4.102a1.099 1.099 0 100-2.197zm-.293-1.526h-9.963a1.099 1.099 0 110-2.198h9.963a1.1 1.1 0 010 2.198zm0 5.042h-2.971a1.099 1.099 0 000 2.198h2.971a1.099 1.099 0 000-2.198zm-16.702 0h9.962a1.099 1.099 0 110 2.198H45a1.1 1.1 0 110-2.198zm4.951-1.32h4.28a1.099 1.099 0 100-2.197h-4.28a1.099 1.099 0 100 2.198zm5.824-36.25a4.19 4.19 0 014.185 4.185 4.19 4.19 0 01-4.185 4.185 4.19 4.19 0 01-4.184-4.185 4.19 4.19 0 014.184-4.185zm0 2.198a1.988 1.988 0 000 3.974 1.99 1.99 0 001.987-1.987 1.989 1.989 0 00-1.987-1.987z" fill="#EF8B54"/></svg>