<svg width="75" height="75" fill="none" xmlns="http://www.w3.org/2000/svg"><path fill-rule="evenodd" clip-rule="evenodd" d="M53.763 19.281H1.184C.53 19.281 0 18.751 0 18.097V1.184C0 .53.53 0 1.184 0h45.098a1.184 1.184 0 110 2.368H2.368v14.544H52.58V2.368h-2.333a1.184 1.184 0 110-2.368h3.517c.654 0 1.184.53 1.184 1.184v16.913c0 .654-.53 1.184-1.184 1.184zM13.283 5.716c0 .654-.531 1.184-1.185 1.184H7.309v5.48h5.866v-.933a1.184 1.184 0 112.368 0v2.118c0 .654-.53 1.184-1.184 1.184H6.125c-.654 0-1.184-.53-1.184-1.184V5.716c0-.654.53-1.184 1.184-1.184h5.973c.654 0 1.184.53 1.184 1.184zm19.755 2.495h-13.06a1.184 1.184 0 110-2.368h13.06a1.184 1.184 0 110 2.368zm13.06 5.227h-26.12a1.184 1.184 0 110-2.369h26.12a1.184 1.184 0 110 2.369zm-26.12 16.281h13.06a1.184 1.184 0 100-2.368h-13.06a1.184 1.184 0 100 2.368zm25.832 5.227H19.978a1.184 1.184 0 110-2.368H45.81a1.184 1.184 0 110 2.368zM19.978 51.228h13.06a1.184 1.184 0 100-2.369h-13.06a1.184 1.184 0 100 2.369zm0 2.858h25.647a1.184 1.184 0 010 2.368H19.978a1.184 1.184 0 010-2.368zM69.386 59.3l-6.88-2.759v-1.51a8.127 8.127 0 003.933-4.913 4.193 4.193 0 004.166-4.188 4.184 4.184 0 00-1.712-3.375v-3.144c0-5.853-4.762-10.615-10.614-10.615h-.786c-.878 0-1.73.11-2.546.311v-6.414c0-.655-.53-1.184-1.184-1.184h-3.517a1.184 1.184 0 100 2.368h2.333v6.13c-3.108 1.63-5.312 4.755-5.653 8.414H2.368V23.877h43.914a1.184 1.184 0 100-2.368H1.184c-.654 0-1.184.53-1.184 1.184v16.912c0 .654.53 1.184 1.184 1.184H46.88v1.754c-.196.142-.378.3-.546.474H1.184C.53 43.017 0 43.547 0 44.2v16.912c0 .654.53 1.184 1.184 1.184h41.19c-1 1.376-1.75 3.23-1.75 5.629v5.888c0 .654.53 1.186 1.185 1.186h4.474a1.184 1.184 0 100-2.369h-3.29v-4.705c0-4.925 3.876-6.338 4.034-6.393l.054-.02 6.483-2.539c.03.037.06.072.095.106l3.4 3.312c.222.215.518.336.827.336h.018c.315-.005.615-.136.834-.363l3.326-3.45 6.47 2.595.057.02c.165.058 4.04 1.472 4.04 6.396v4.706h-22.56a1.184 1.184 0 100 2.368h23.745A1.193 1.193 0 0075 73.804v-5.878c0-5.3-3.651-7.95-5.614-8.626zm-2.64-15.158a1.822 1.822 0 011.49 1.788c0 .891-.643 1.633-1.49 1.789v-3.577zm-17.5-4.731c.001-4.547 3.7-8.246 8.247-8.246h.786c4.547 0 8.246 3.7 8.246 8.246v1.934l-.002-.002-.002-.003-.001-.002a1.086 1.086 0 00-.133-.154l-.012-.011-.019-.018-.03-.027-.024-.019-.013-.01a1.195 1.195 0 00-.077-.055l-.018-.012A1.134 1.134 0 0066.14 41l-.01-.006-.025-.013-.003-.001-.012-.006-.051-.025-.05-.02-.013-.005-.045-.016a1.147 1.147 0 00-.07-.02h-.003l-.012-.004-.02-.006c-2.578-.586-3.384-3.918-3.391-3.947a1.184 1.184 0 00-2.115-.433c-3.116 4.308-9.974 4.35-10.068 4.35h-.005a1.201 1.201 0 00-.121.007l-.037.006a1.026 1.026 0 00-.08.012l-.03.007-.02.006-.02.004c-.015.004-.03.007-.044.012a.651.651 0 00-.039.014l-.017.007-.018.006a.641.641 0 00-.034.012l-.049.024h-.001l-.013.007-.015.007-.016.007-.01.005-.061.037-.008.005-.008.005a.408.408 0 00-.038.025l-.026.02-.011.008-.036.027-.032.029-.002.001-.014.013-.01.01-.016.013-.01.01-.012.012-.009.01-.021.024-.011.012-.017.018-.007.008a.725.725 0 00-.027.035l-.008.012-.033.044-.018.03V39.41zm-.184 4.723v3.593a1.821 1.821 0 01-1.544-1.796c0-.91.671-1.663 1.544-1.797zm4.239 12.4l-7.058 2.764c-.393.135-.854.35-1.34.65a1.788 1.788 0 00-.102-.014 1.076 1.076 0 00-.097-.005H2.368V45.385h42.818a4.193 4.193 0 004.168 4.732h.015A8.128 8.128 0 0053.3 55.03v1.504zm6.837.965l-2.28 2.366-2.189-2.133v-1.863c.482.09.978.14 1.486.14h1.498c.508 0 1.004-.05 1.485-.14v1.63zm-1.484-3.86h-1.5a5.73 5.73 0 01-5.724-5.724v-4.759c2.067-.178 6.371-.888 9.438-3.728.628 1.239 1.72 2.732 3.51 3.465v5.023a5.73 5.73 0 01-5.724 5.724zM16.674 4.855a1.184 1.184 0 00-1.674.05l-3.934 4.174L9.85 7.753a1.184 1.184 0 10-1.745 1.602l2.077 2.262c.223.242.536.381.865.384h.008c.326 0 .638-.135.861-.372l4.807-5.1a1.184 1.184 0 00-.05-1.675zm-3.392 22.37c0 .654-.53 1.184-1.184 1.184H7.309v5.48h5.866v-.933a1.184 1.184 0 112.368 0v2.118c0 .654-.53 1.184-1.184 1.184H6.125c-.654 0-1.184-.53-1.184-1.184v-7.849c0-.654.53-1.184 1.184-1.184h5.973c.654 0 1.184.53 1.184 1.184zm3.392-.862a1.184 1.184 0 00-1.674.05l-3.934 4.174L9.85 29.26a1.184 1.184 0 10-1.745 1.602l2.077 2.262c.223.243.536.382.865.384h.008c.326 0 .638-.135.862-.372l4.806-5.1a1.185 1.185 0 00-.05-1.675zm-3.5 28.102a1.184 1.184 0 112.37 0v2.117c0 .654-.531 1.184-1.185 1.184H6.125c-.654 0-1.184-.53-1.184-1.184v-7.849c0-.654.53-1.184 1.184-1.184h5.973a1.184 1.184 0 110 2.369H7.31v5.48h5.866v-.933zM15 47.92l-3.934 4.173L9.85 50.77a1.184 1.184 0 10-1.745 1.601l2.077 2.263c.223.242.536.381.865.383h.008c.326 0 .638-.134.862-.372l4.806-5.1A1.185 1.185 0 0015 47.921z" fill="#EF8B54"/></svg>