<svg width="19" height="19" fill="none" xmlns="http://www.w3.org/2000/svg"><g clip-path="url(#clip0)"><path d="M16.258 6.878h-1.14v-1.52A5.323 5.323 0 009.803.043 5.323 5.323 0 004.486 5.36v1.519h-1.14a.38.38 0 00-.379.38v9.494a1.52 1.52 0 001.52 1.519H15.12a1.52 1.52 0 001.519-1.52V7.258a.38.38 0 00-.38-.38zM10.94 14.81a.38.38 0 01-.377.422h-1.52a.38.38 0 01-.377-.422l.24-2.154a1.503 1.503 0 01-.622-1.222c0-.838.681-1.52 1.519-1.52.838 0 1.52.682 1.52 1.52 0 .491-.233.939-.622 1.222l.24 2.154zm1.901-7.933H6.764v-1.52A3.042 3.042 0 019.802 2.32a3.042 3.042 0 013.038 3.04v1.519z" fill="#31BE00"/></g><defs><clipPath id="clip0"><path fill="#fff" transform="translate(.688 .042)" d="M0 0h18.229v18.229H0z"/></clipPath></defs></svg>